<svg id="visual" viewBox="0 0 900 600" width="900" height="600" xmlns="http://www.w3.org/2000/svg" xmlns:xlink="http://www.w3.org/1999/xlink" version="1.1"><rect x="0" y="0" width="900" height="600" fill="#ffffff"></rect><path d="M65 0L52 120L30 240L62 360L85 480L79 600L0 600L0 480L0 360L0 240L0 120L0 0Z" fill="#ffffff"></path><path d="M21 0L38 120L23 240L38 360L51 480L35 600L0 600L0 480L0 360L0 240L0 120L0 0Z" fill="#d4f0e2"></path><path d="M19 0L14 120L33 240L17 360L30 480L26 600L0 600L0 480L0 360L0 240L0 120L0 0Z" fill="#a8e1c5"></path><path d="M27 0L15 120L0 240L24 360L11 480L28 600L0 600L0 480L0 360L0 240L0 120L0 0Z" fill="#78d1a9"></path></svg>