<svg id="visual" viewBox="0 0 900 600" width="900" height="600" xmlns="http://www.w3.org/2000/svg" xmlns:xlink="http://www.w3.org/1999/xlink" version="1.1"><rect x="0" y="0" width="900" height="600" fill="#ffffff"></rect><path d="M689 0L682 86L616 171L666 257L624 343L579 429L507 514L636 600L0 600L0 514L0 429L0 343L0 257L0 171L0 86L0 0Z" fill="#fcfcfc"></path><path d="M562 0L454 86L353 171L443 257L532 343L331 429L560 514L409 600L0 600L0 514L0 429L0 343L0 257L0 171L0 86L0 0Z" fill="#c6c9d0"></path><path d="M353 0L399 86L241 171L265 257L357 343L404 429L275 514L249 600L0 600L0 514L0 429L0 343L0 257L0 171L0 86L0 0Z" fill="#9299a5"></path><path d="M164 0L167 86L284 171L234 257L269 343L217 429L299 514L257 600L0 600L0 514L0 429L0 343L0 257L0 171L0 86L0 0Z" fill="#616b7c"></path><path d="M136 0L208 86L90 171L192 257L186 343L206 429L216 514L81 600L0 600L0 514L0 429L0 343L0 257L0 171L0 86L0 0Z" fill="#334155"></path></svg>