<svg id="visual" viewBox="0 0 900 600" width="900" height="600" xmlns="http://www.w3.org/2000/svg" xmlns:xlink="http://www.w3.org/1999/xlink" version="1.1"><path d="M836 600L827 514L719 429L737 343L836 257L773 171L836 86L800 0L900 0L900 86L900 171L900 257L900 343L900 429L900 514L900 600Z" fill="#ffffff"></path><path d="M674 600L602 514L620 429L548 343L431 257L593 171L476 86L476 0L801 0L837 86L774 171L837 257L738 343L720 429L828 514L837 600Z" fill="#d4dae4"></path><path d="M314 600L287 514L287 429L161 343L260 257L332 171L377 86L341 0L477 0L477 86L594 171L432 257L549 343L621 429L603 514L675 600Z" fill="#a9b6ca"></path><path d="M206 600L170 514L179 429L80 343L116 257L170 171L269 86L188 0L342 0L378 86L333 171L261 257L162 343L288 429L288 514L315 600Z" fill="#7f94b0"></path><path d="M0 600L0 514L0 429L0 343L0 257L0 171L0 86L0 0L189 0L270 86L171 171L117 257L81 343L180 429L171 514L207 600Z" fill="#557397"></path></svg>